<svg width="173" height="46" viewBox="0 0 173 46" fill="none" xmlns="http://www.w3.org/2000/svg">
<path d="M94.5747 8.43716H94.4904L93.3519 10.7774L90.3369 16.3435L87.322 10.7774L86.1835 8.43716H86.0992V19H83.4637V4.2837H86.6052L90.3791 11.4732H90.4634L94.1952 4.2837H97.2102V19H94.5747V8.43716ZM104.872 19.253C104.085 19.253 103.375 19.1195 102.743 18.8524C102.124 18.5854 101.59 18.1988 101.14 17.6928C100.705 17.1868 100.367 16.5824 100.128 15.8796C99.8893 15.1628 99.7698 14.3616 99.7698 13.4761C99.7698 12.5906 99.8893 11.7965 100.128 11.0937C100.367 10.3909 100.705 9.79353 101.14 9.30158C101.59 8.79558 102.124 8.40905 102.743 8.14199C103.375 7.87493 104.085 7.7414 104.872 7.7414C105.659 7.7414 106.369 7.87493 107.001 8.14199C107.634 8.40905 108.168 8.79558 108.604 9.30158C109.054 9.79353 109.398 10.3909 109.637 11.0937C109.876 11.7965 109.995 12.5906 109.995 13.4761C109.995 14.3616 109.876 15.1628 109.637 15.8796C109.398 16.5824 109.054 17.1868 108.604 17.6928C108.168 18.1988 107.634 18.5854 107.001 18.8524C106.369 19.1195 105.659 19.253 104.872 19.253ZM104.872 17.0814C105.589 17.0814 106.151 16.8635 106.559 16.4278C106.966 15.9921 107.17 15.3526 107.17 14.5092V12.4641C107.17 11.6348 106.966 11.0023 106.559 10.5666C106.151 10.1309 105.589 9.913 104.872 9.913C104.169 9.913 103.614 10.1309 103.206 10.5666C102.799 11.0023 102.595 11.6348 102.595 12.4641V14.5092C102.595 15.3526 102.799 15.9921 103.206 16.4278C103.614 16.8635 104.169 17.0814 104.872 17.0814ZM110.958 16.8495H112.391C112.532 16.6386 112.658 16.3856 112.771 16.0905C112.897 15.7953 113.003 15.4369 113.087 15.0152C113.171 14.5795 113.235 14.0665 113.277 13.4761C113.333 12.8717 113.361 12.1689 113.361 11.3678V7.9944H121.731V19H119.033V10.1449H115.933V11.4943C115.933 12.4922 115.898 13.3637 115.828 14.1086C115.758 14.8395 115.652 15.472 115.512 16.0061C115.385 16.5403 115.224 16.99 115.027 17.3555C114.844 17.7069 114.64 17.995 114.415 18.2199C114.092 18.5432 113.727 18.7681 113.319 18.8946C112.911 19.0211 112.412 19.0843 111.822 19.0843H110.958V16.8495ZM129.188 19.253C128.401 19.253 127.691 19.1195 127.059 18.8524C126.44 18.5854 125.906 18.1988 125.456 17.6928C125.021 17.1868 124.683 16.5824 124.444 15.8796C124.205 15.1628 124.086 14.3616 124.086 13.4761C124.086 12.5906 124.205 11.7965 124.444 11.0937C124.683 10.3909 125.021 9.79353 125.456 9.30158C125.906 8.79558 126.44 8.40905 127.059 8.14199C127.691 7.87493 128.401 7.7414 129.188 7.7414C129.975 7.7414 130.685 7.87493 131.318 8.14199C131.95 8.40905 132.484 8.79558 132.92 9.30158C133.37 9.79353 133.714 10.3909 133.953 11.0937C134.192 11.7965 134.311 12.5906 134.311 13.4761C134.311 14.3616 134.192 15.1628 133.953 15.8796C133.714 16.5824 133.37 17.1868 132.92 17.6928C132.484 18.1988 131.95 18.5854 131.318 18.8524C130.685 19.1195 129.975 19.253 129.188 19.253ZM129.188 17.0814C129.905 17.0814 130.467 16.8635 130.875 16.4278C131.282 15.9921 131.486 15.3526 131.486 14.5092V12.4641C131.486 11.6348 131.282 11.0023 130.875 10.5666C130.467 10.1309 129.905 9.913 129.188 9.913C128.485 9.913 127.93 10.1309 127.523 10.5666C127.115 11.0023 126.911 11.6348 126.911 12.4641V14.5092C126.911 15.3526 127.115 15.9921 127.523 16.4278C127.93 16.8635 128.485 17.0814 129.188 17.0814ZM135.251 16.8495H136.643C137.05 16.2591 137.352 15.5142 137.549 14.6146C137.746 13.7151 137.844 12.5555 137.844 11.1358V7.9944H146.299V16.8495H148.175V21.9517H145.73V19H137.697V21.9517H135.251V16.8495ZM143.6 16.8495V10.1449H140.417V11.2623C140.417 12.7663 140.325 13.961 140.142 14.8465C139.96 15.718 139.735 16.3856 139.468 16.8495H143.6ZM158.204 19C157.613 19 157.142 18.8313 156.791 18.494C156.454 18.1426 156.243 17.6788 156.159 17.1025H156.032C155.849 17.8193 155.477 18.3605 154.915 18.7259C154.352 19.0773 153.657 19.253 152.827 19.253C151.703 19.253 150.838 18.9578 150.234 18.3675C149.63 17.7772 149.327 16.99 149.327 16.0061C149.327 14.8676 149.735 14.0243 150.55 13.4761C151.366 12.9139 152.525 12.6328 154.029 12.6328H155.906V11.8316C155.906 11.2132 155.744 10.7353 155.421 10.3979C155.097 10.0606 154.577 9.89192 153.86 9.89192C153.228 9.89192 152.715 10.0325 152.321 10.3136C151.942 10.5806 151.619 10.9039 151.351 11.2834L149.749 9.84975C150.157 9.21725 150.698 8.71124 151.373 8.33174C152.047 7.93818 152.94 7.7414 154.05 7.7414C155.54 7.7414 156.672 8.07874 157.445 8.75341C158.218 9.42808 158.604 10.3979 158.604 11.6629V16.8495H159.701V19H158.204ZM153.734 17.2922C154.338 17.2922 154.851 17.1587 155.273 16.8916C155.695 16.6246 155.906 16.231 155.906 15.711V14.2562H154.177C152.771 14.2562 152.068 14.706 152.068 15.6056V15.964C152.068 16.4138 152.209 16.7511 152.49 16.976C152.785 17.1868 153.2 17.2922 153.734 17.2922ZM161.21 16.8495H162.391L162.96 15.6899C163.227 15.1277 163.628 14.8114 164.162 14.7411V14.6357C163.318 14.5373 162.644 14.2351 162.138 13.7291C161.646 13.2231 161.4 12.5063 161.4 11.5786C161.4 11.0164 161.491 10.5174 161.674 10.0817C161.871 9.63189 162.131 9.25239 162.454 8.94316C162.791 8.63394 163.185 8.40202 163.635 8.2474C164.098 8.07874 164.597 7.9944 165.132 7.9944H170.803V19H168.104V15.0574H166.059L164.9 17.4398C164.619 18.0302 164.295 18.4378 163.93 18.6627C163.578 18.8876 163.136 19 162.602 19H161.21V16.8495ZM168.104 13.0544V9.99734H165.68C165.202 9.99734 164.822 10.1098 164.541 10.3347C164.274 10.5596 164.141 10.8969 164.141 11.3467V11.7894C164.141 12.1971 164.274 12.5133 164.541 12.7382C164.822 12.949 165.202 13.0544 165.68 13.0544H168.104ZM92.5718 41L91.3911 37.2471H86.1624L85.0028 41H82.1776L87.1112 26.2837H90.5689L95.4602 41H92.5718ZM88.8189 28.8137H88.7135L86.8371 34.8647H90.7164L88.8189 28.8137ZM97.4605 29.9944H100.159V31.8076H100.244C100.44 31.1751 100.813 30.6761 101.361 30.3107C101.909 29.9312 102.549 29.7414 103.28 29.7414C104.685 29.7414 105.753 30.2404 106.484 31.2383C107.229 32.2222 107.602 33.6348 107.602 35.4761C107.602 37.3315 107.229 38.7581 106.484 39.7561C105.753 40.754 104.685 41.253 103.28 41.253C102.549 41.253 101.909 41.0633 101.361 40.6837C100.827 40.3042 100.454 39.7982 100.244 39.1657H100.159V45.2167H97.4605V29.9944ZM102.415 39.0181C103.118 39.0181 103.687 38.7862 104.123 38.3224C104.559 37.8586 104.777 37.2331 104.777 36.446V34.5484C104.777 33.7613 104.559 33.1358 104.123 32.672C103.687 32.1941 103.118 31.9552 102.415 31.9552C101.769 31.9552 101.227 32.1168 100.792 32.4401C100.37 32.7634 100.159 33.1921 100.159 33.7262V37.226C100.159 37.8023 100.37 38.2451 100.792 38.5543C101.227 38.8635 101.769 39.0181 102.415 39.0181ZM110.102 29.9944H112.801V34.3165H114.572L116.238 31.4281C116.547 30.894 116.863 30.5215 117.186 30.3107C117.51 30.0998 117.938 29.9944 118.473 29.9944H119.674V32.1449H118.494L117.334 34.1689C117.137 34.5344 116.948 34.7944 116.765 34.949C116.582 35.0896 116.364 35.195 116.111 35.2653V35.3707C116.364 35.4269 116.589 35.5253 116.786 35.6659C116.997 35.8064 117.201 36.0524 117.397 36.4038L118.768 38.8495H119.927V41H118.557C118.023 41 117.58 40.8876 117.229 40.6627C116.891 40.4378 116.568 40.0512 116.259 39.5031L114.572 36.446H112.801V41H110.102V29.9944ZM124.526 32.1449H121.173V29.9944H130.577V32.1449H127.224V41H124.526V32.1449ZM132.565 29.9944H135.201V34.9069L134.969 37.4791H135.053L136.339 35.1388L139.776 29.9944H142.201V41H139.565V36.0875L139.797 33.4943H139.713L138.427 35.8556L134.99 41H132.565V29.9944ZM145.331 29.9944H148.03V34.3165H149.801L151.466 31.4281C151.775 30.894 152.092 30.5215 152.415 30.3107C152.738 30.0998 153.167 29.9944 153.701 29.9944H154.903V32.1449H153.722L152.562 34.1689C152.366 34.5344 152.176 34.7944 151.993 34.949C151.81 35.0896 151.593 35.195 151.34 35.2653V35.3707C151.593 35.4269 151.818 35.5253 152.014 35.6659C152.225 35.8064 152.429 36.0524 152.626 36.4038L153.996 38.8495H155.156V41H153.785C153.251 41 152.808 40.8876 152.457 40.6627C152.12 40.4378 151.796 40.0512 151.487 39.5031L149.801 36.446H148.03V41H145.331V29.9944ZM165.431 41C164.84 41 164.369 40.8313 164.018 40.494C163.681 40.1426 163.47 39.6788 163.385 39.1025H163.259C163.076 39.8193 162.704 40.3605 162.141 40.7259C161.579 41.0773 160.883 41.253 160.054 41.253C158.93 41.253 158.065 40.9578 157.461 40.3675C156.857 39.7772 156.554 38.99 156.554 38.0061C156.554 36.8676 156.962 36.0243 157.777 35.4761C158.592 34.9139 159.752 34.6328 161.256 34.6328H163.132V33.8316C163.132 33.2132 162.971 32.7353 162.647 32.3979C162.324 32.0606 161.804 31.8919 161.087 31.8919C160.455 31.8919 159.942 32.0325 159.548 32.3136C159.169 32.5806 158.845 32.9039 158.578 33.2834L156.976 31.8498C157.384 31.2172 157.925 30.7112 158.599 30.3317C159.274 29.9382 160.167 29.7414 161.277 29.7414C162.767 29.7414 163.898 30.0787 164.671 30.7534C165.445 31.4281 165.831 32.3979 165.831 33.6629V38.8495H166.927V41H165.431ZM160.961 39.2922C161.565 39.2922 162.078 39.1587 162.5 38.8916C162.922 38.6246 163.132 38.231 163.132 37.711V36.2562H161.404C159.998 36.2562 159.295 36.706 159.295 37.6056V37.964C159.295 38.4138 159.436 38.7511 159.717 38.976C160.012 39.1868 160.427 39.2922 160.961 39.2922Z" fill="#060917"/>
<path opacity="0.34" d="M27.6724 27.7865C26.9667 27.7865 26.6138 27.7865 26.298 27.7238C25.3903 27.5437 24.6011 26.9882 24.1253 26.1945C23.9597 25.9184 23.8406 25.5862 23.6025 24.9218L21.5607 19.2251C20.1588 15.314 19.4579 13.3584 20.391 11.981C20.4129 11.9487 20.4354 11.9167 20.4585 11.8851C21.4403 10.542 23.5176 10.542 27.6724 10.542C31.8272 10.542 33.9046 10.542 34.8864 11.8851C34.9095 11.9167 34.932 11.9487 34.9539 11.981C35.887 13.3584 35.1861 15.314 33.7842 19.2251L31.7424 24.9218C31.5042 25.5862 31.3852 25.9184 31.2196 26.1945C30.7438 26.9882 29.9546 27.5437 29.0469 27.7238C28.7311 27.7865 28.3782 27.7865 27.6724 27.7865Z" fill="#7D3EDC"/>
<path opacity="0.34" d="M0 2.6355C0 1.17999 1.17993 6.10352e-05 2.63544 6.10352e-05H10.6417C11.765 6.10352e-05 12.7648 0.71198 13.1322 1.77342L18.1581 16.2927C18.3501 16.8473 18.4481 17.43 18.4481 18.0169V42.1671C18.4481 43.6226 17.2682 44.8025 15.8126 44.8025H2.63544C1.17993 44.8025 0 43.6226 0 42.1671V2.6355Z" fill="#7D3EDC"/>
<path fill-rule="evenodd" clip-rule="evenodd" d="M59.205 0.480387C58.5226 6.10352e-05 57.6261 6.10352e-05 55.8331 6.10352e-05H47.4404C45.6474 6.10352e-05 44.7509 6.10352e-05 44.0685 0.480387C43.3861 0.960713 43.0836 1.80464 42.4786 3.4925L30.1986 37.7532C29.0487 40.9614 28.4738 42.5655 29.2611 43.684C30.0484 44.8025 31.7524 44.8025 35.1604 44.8025H47.708C49.501 44.8025 50.3975 44.8025 51.0799 44.3222C51.7623 43.8419 52.0648 42.998 52.6697 41.3101L53.5654 38.8112C54.0311 37.5119 54.264 36.8623 54.7893 36.4925C55.3146 36.1227 56.0047 36.1227 57.385 36.1227H57.7594C59.1396 36.1227 59.8297 36.1227 60.3551 36.4925C60.8804 36.8623 61.1132 37.5119 61.5789 38.8112L62.4746 41.3101C63.0796 42.998 63.3821 43.8419 64.0645 44.3222C64.7469 44.8025 65.6434 44.8025 67.4364 44.8025H68.113C71.5211 44.8025 73.2251 44.8025 74.0124 43.684C74.7997 42.5655 74.2247 40.9614 73.0748 37.7532L60.7948 3.4925C60.1899 1.80464 59.8874 0.960714 59.205 0.480387Z" fill="#7D3EDC"/>
</svg>
