<svg width="399" height="383" viewBox="0 0 399 383" fill="none" xmlns="http://www.w3.org/2000/svg">
<ellipse opacity="0.1" cx="199.378" cy="324.823" rx="199.378" ry="58.1772" fill="#134F5C"/>
<path d="M325.23 332.502C351.872 320.981 348.128 264.817 347.84 251.857C344.04 224.609 340.508 209.072 334.071 181.336C334.452 176.254 334.801 171.328 335.113 166.575C335.721 157.324 336.193 148.725 336.5 140.889C337.35 119.21 336.944 103.375 334.7 95.7653C331.227 83.9921 315.154 68.0334 284.174 57.8546C253.195 47.6757 223.653 63.3251 219.097 64.8137C214.54 66.3023 193.873 68.4931 190.031 71.8056C186.188 75.1181 180.008 91.3646 187.555 97.8019C189.299 99.2903 191.181 99.9771 193.048 100.132C197.642 100.514 202.153 97.6777 204.344 95.6397L205.836 89.9271C202.394 88.4817 195.648 84.9428 196.206 82.35C196.904 79.109 204.089 80.0933 208.166 81.0098C212.244 81.9263 219.931 84.9769 218.778 88.2481C217.856 90.865 210.162 90.462 205.836 89.9271L204.344 95.6397C202.153 97.6777 197.642 100.514 193.048 100.132C192.537 102.495 192.002 104.786 191.446 107.005C193.048 110.5 197.886 116.974 203.329 118.892C191.462 176.257 176.584 199.498 140.177 230.255C128.616 240.708 85.8854 255.745 68.3161 262.945C50.7469 270.146 39.3701 282.675 38.794 307.444C38.218 332.214 64.3526 340.334 73.5005 343.159C83.2932 346.183 77.3888 346.327 91.6458 348.487C100.243 349.79 104.913 348.788 107.487 346.43C109.181 344.877 109.967 342.737 110.367 340.279C111.174 335.325 105.999 330.246 103.311 328.326C108.063 328.326 119.555 328.672 127.504 330.054C137.441 331.782 155.73 339.415 160.915 338.119C166.099 336.823 164.227 329.19 161.923 321.989C160.079 316.229 148.29 309.893 142.625 307.444L197.413 310.037C203.546 318.533 213.299 329.15 221.975 334.662C231.736 340.865 240.923 340.893 247.609 337.575C250.393 336.193 252.743 334.231 254.521 331.893C259.36 325.529 251.929 314.479 247.609 309.749L300.317 307.876C297.073 315.904 296.934 326.352 302.189 331.893C304.446 334.272 307.697 335.747 312.125 335.735C315.697 335.726 320.033 334.75 325.23 332.502Z" fill="#55D3EF"/>
<path d="M300.317 307.876C306.077 293.619 309.389 292.179 310.829 284.547C312.19 277.335 311.885 264.337 312.125 256.033M300.317 307.876C297.073 315.904 296.934 326.352 302.189 331.893M300.317 307.876L247.609 309.749M302.189 331.893C303.101 325.183 306.365 311.678 312.125 311.333M302.189 331.893C304.446 334.272 307.697 335.747 312.125 335.735M312.125 335.735C315.697 335.726 320.033 334.75 325.23 332.502C351.872 320.981 348.128 264.817 347.84 251.857C344.04 224.609 340.508 209.072 334.071 181.336C334.452 176.254 334.801 171.328 335.113 166.575M312.125 335.735C315.582 332.113 322.264 323.516 321.342 318.101M247.609 309.749C243.673 306.292 236.618 300.438 235.08 294.051C233.208 286.275 234.264 268.178 234.216 257.905M247.609 309.749C251.929 314.479 259.36 325.529 254.521 331.893M254.521 331.893C252.743 334.231 250.393 336.193 247.609 337.575M254.521 331.893C253.225 327.535 248.444 318.764 239.688 318.533M191.301 263.665V263.667C191.205 273.508 191.013 293.188 191.301 298.66C191.543 303.268 193.773 304.994 197.413 310.037M247.609 337.575C240.923 340.893 231.736 340.865 221.975 334.662C213.299 329.15 203.546 318.533 197.413 310.037M247.609 337.575C242.328 336.124 231.192 331.84 228.888 326.31M197.413 310.037L142.625 307.444M142.625 307.444C140.609 305.668 134.59 301.77 126.64 300.388C116.704 298.66 103.311 296.5 103.311 289.299C103.311 283.539 104.751 279.698 105.471 278.498M142.625 307.444C148.29 309.893 160.079 316.229 161.923 321.989C164.227 329.19 166.099 336.823 160.915 338.119M160.915 338.119C155.73 339.415 137.441 331.782 127.504 330.054C119.555 328.672 108.063 328.326 103.311 328.326M160.915 338.119C153.858 329.958 137.297 314.472 127.504 317.813M103.311 328.326C96.5421 325.59 81.8819 319.973 77.3888 319.397C71.7724 318.677 62.2677 309.317 63.1318 300.388C63.823 293.245 66.012 287.043 67.02 284.835M103.311 328.326C105.999 330.246 111.174 335.325 110.367 340.279C109.967 342.737 109.181 344.877 107.487 346.43M107.487 346.43C104.913 348.788 100.243 349.79 91.6458 348.487C77.3888 346.327 83.2932 346.183 73.5005 343.159C64.3526 340.334 38.218 332.214 38.794 307.444C39.3701 282.675 50.7469 270.146 68.3161 262.945C85.8854 255.745 128.616 240.708 140.177 230.255C176.584 199.498 191.462 176.257 203.329 118.892M107.487 346.43C103.935 342.411 95.7933 334.835 91.6458 336.679M205.836 89.9271L204.344 95.6397M205.836 89.9271C202.394 88.4817 195.648 84.9428 196.206 82.35C196.904 79.109 204.089 80.0933 208.166 81.0098C212.244 81.9263 219.931 84.9769 218.778 88.2481C217.856 90.865 210.162 90.462 205.836 89.9271ZM204.344 95.6397C202.153 97.6777 197.642 100.514 193.048 100.132M204.344 95.6397C207.603 101.205 215.845 108.706 223.368 109.988M193.048 100.132C191.181 99.9771 189.299 99.2903 187.555 97.8019C180.008 91.3646 186.188 75.1181 190.031 71.8056C193.873 68.4931 214.54 66.3023 219.097 64.8137C223.653 63.3251 253.195 47.6757 284.174 57.8546C315.154 68.0334 331.227 83.9921 334.7 95.7653C336.944 103.375 337.35 119.21 336.5 140.889M193.048 100.132C192.537 102.495 192.002 104.786 191.446 107.005C193.048 110.5 197.886 116.974 203.329 118.892M203.329 118.892C209.871 121.197 214.747 122.471 218.704 121.57M309.346 151.209C319.417 152.769 331.645 144.979 336.5 140.889M336.5 140.889C336.193 148.725 335.721 157.324 335.113 166.575M319.637 172.206C325.186 173.299 332.267 168.907 335.113 166.575" stroke="#1D59B5" stroke-width="1.42581" stroke-linecap="round" stroke-linejoin="round"/>
<path fill-rule="evenodd" clip-rule="evenodd" d="M196.206 82.35C195.648 84.9428 202.394 88.4817 205.836 89.9271C210.162 90.462 217.856 90.865 218.778 88.2481C219.931 84.9769 212.244 81.9263 208.166 81.0098C204.089 80.0933 196.904 79.109 196.206 82.35Z" fill="#1D59B5"/>
<path d="M347.84 251.857L348.553 251.841C348.552 251.813 348.55 251.785 348.546 251.758L347.84 251.857ZM325.23 332.502L324.947 331.848L324.947 331.848L325.23 332.502ZM300.317 307.876L300.978 308.144L300.978 308.144L300.317 307.876ZM310.829 284.547L311.53 284.679L311.53 284.679L310.829 284.547ZM312.838 256.053C312.849 255.66 312.54 255.332 312.146 255.32C311.752 255.309 311.424 255.619 311.413 256.012L312.838 256.053ZM302.189 331.893L301.671 332.383L301.671 332.383L302.189 331.893ZM312.168 312.044C312.561 312.021 312.861 311.683 312.837 311.29C312.813 310.897 312.476 310.598 312.083 310.621L312.168 312.044ZM312.125 335.735L312.127 336.448L312.127 336.448L312.125 335.735ZM322.045 317.982C321.979 317.593 321.611 317.332 321.222 317.398C320.834 317.464 320.573 317.833 320.639 318.221L322.045 317.982ZM235.08 294.051L234.387 294.218L234.387 294.218L235.08 294.051ZM234.929 257.902C234.927 257.508 234.606 257.19 234.213 257.192C233.819 257.194 233.501 257.515 233.503 257.908L234.929 257.902ZM191.301 298.66L190.589 298.697L190.589 298.697L191.301 298.66ZM191.301 263.667L192.014 263.674V263.667H191.301ZM192.014 263.665C192.014 263.272 191.695 262.952 191.301 262.952C190.907 262.952 190.588 263.272 190.588 263.665H192.014ZM221.975 334.662L222.357 334.061L222.357 334.061L221.975 334.662ZM229.546 326.036C229.394 325.672 228.977 325.5 228.613 325.652C228.25 325.803 228.078 326.221 228.229 326.584L229.546 326.036ZM239.707 317.821C239.313 317.81 238.986 318.121 238.976 318.514C238.965 318.908 239.276 319.236 239.67 319.246L239.707 317.821ZM142.625 307.444L142.154 307.979C142.21 308.029 142.274 308.069 142.343 308.099L142.625 307.444ZM126.64 300.388L126.762 299.686L126.762 299.686L126.64 300.388ZM106.082 278.865C106.285 278.528 106.175 278.09 105.838 277.887C105.5 277.685 105.062 277.794 104.859 278.132L106.082 278.865ZM161.923 321.989L161.244 322.207L161.244 322.207L161.923 321.989ZM127.504 330.054L127.626 329.352L127.626 329.352L127.504 330.054ZM77.3888 319.397L77.2981 320.104L77.2981 320.104L77.3888 319.397ZM63.1318 300.388L62.4222 300.319L62.4222 300.319L63.1318 300.388ZM67.6686 285.131C67.8321 284.773 67.6743 284.35 67.3161 284.186C66.9579 284.023 66.535 284.181 66.3715 284.539L67.6686 285.131ZM127.274 317.138C126.901 317.266 126.702 317.671 126.83 318.043C126.957 318.416 127.362 318.615 127.735 318.488L127.274 317.138ZM110.367 340.279L111.071 340.393L111.071 340.393L110.367 340.279ZM91.6458 348.487L91.7526 347.783L91.7526 347.783L91.6458 348.487ZM73.5005 343.159L73.2901 343.84L73.2901 343.84L73.5005 343.159ZM140.177 230.255L139.717 229.71C139.711 229.716 139.705 229.721 139.699 229.726L140.177 230.255ZM107.487 346.43L107.969 346.955L107.969 346.955L107.487 346.43ZM91.3563 336.027C90.9965 336.187 90.8344 336.608 90.9943 336.968C91.1542 337.328 91.5755 337.49 91.9353 337.33L91.3563 336.027ZM187.555 97.8019L188.017 97.2595L187.555 97.8019ZM334.7 95.7653L334.016 95.967L334.7 95.7653ZM334.071 181.336L333.36 181.283C333.355 181.355 333.36 181.427 333.377 181.497L334.071 181.336ZM193.048 100.132L193.107 99.4218L193.048 100.132ZM223.368 109.988L223.248 110.691L223.248 110.691L223.368 109.988ZM235.942 118.892C235.942 119.286 236.261 119.605 236.655 119.605C237.048 119.605 237.368 119.286 237.368 118.892H235.942ZM191.446 107.005L190.755 106.832C190.715 106.989 190.731 107.155 190.798 107.302L191.446 107.005ZM203.329 118.892L203.565 118.22L203.329 118.892ZM218.862 122.265C219.246 122.178 219.487 121.796 219.399 121.412C219.312 121.028 218.93 120.788 218.546 120.875L218.862 122.265ZM309.455 150.504C309.066 150.444 308.702 150.711 308.642 151.1C308.581 151.489 308.848 151.853 309.237 151.913L309.455 150.504ZM319.775 171.507C319.389 171.43 319.014 171.682 318.938 172.068C318.862 172.455 319.113 172.829 319.5 172.906L319.775 171.507ZM335.113 166.575L335.825 166.622L335.113 166.575ZM196.206 82.35L196.903 82.5001L196.903 82.5001L196.206 82.35ZM218.778 88.2481L219.451 88.485L218.778 88.2481ZM347.127 251.872C347.272 258.384 348.276 275.592 345.928 292.622C344.754 301.135 342.747 309.56 339.4 316.556C336.054 323.55 331.397 329.059 324.947 331.848L325.513 333.157C332.384 330.185 337.25 324.354 340.686 317.171C344.122 309.991 346.156 301.405 347.34 292.817C349.708 275.644 348.696 258.29 348.553 251.841L347.127 251.872ZM300.978 308.144C303.84 301.059 306.09 297.167 307.816 294.075C309.553 290.961 310.788 288.611 311.53 284.679L310.129 284.415C309.431 288.115 308.289 290.301 306.571 293.38C304.84 296.481 302.553 300.437 299.656 307.609L300.978 308.144ZM311.53 284.679C312.222 281.01 312.486 275.904 312.61 270.717C312.736 265.467 312.717 260.237 312.838 256.053L311.413 256.012C311.294 260.133 311.307 265.555 311.185 270.683C311.061 275.873 310.797 280.872 310.129 284.415L311.53 284.679ZM302.706 331.402C300.235 328.796 298.989 324.986 298.778 320.782C298.567 316.584 299.392 312.068 300.978 308.144L299.656 307.609C297.998 311.712 297.132 316.434 297.354 320.853C297.576 325.265 298.888 329.449 301.671 332.383L302.706 331.402ZM312.083 310.621C310.353 310.725 308.901 311.811 307.713 313.303C306.519 314.803 305.511 316.808 304.674 318.969C302.998 323.295 301.943 328.407 301.482 331.797L302.895 331.989C303.346 328.669 304.38 323.674 306.004 319.484C306.817 317.386 307.762 315.531 308.829 314.192C309.901 312.845 311.018 312.113 312.168 312.044L312.083 310.621ZM324.947 331.848C319.809 334.07 315.57 335.013 312.124 335.022L312.127 336.448C315.824 336.438 320.258 335.429 325.513 333.157L324.947 331.848ZM312.124 335.022C307.869 335.033 304.813 333.624 302.706 331.402L301.671 332.383C304.078 334.921 307.526 336.46 312.127 336.448L312.124 335.022ZM320.639 318.221C320.842 319.412 320.633 320.836 320.102 322.403C319.573 323.962 318.743 325.609 317.766 327.221C315.811 330.447 313.31 333.461 311.61 335.243L312.641 336.227C314.397 334.387 316.966 331.292 318.985 327.96C319.995 326.293 320.879 324.55 321.452 322.861C322.022 321.179 322.303 319.498 322.045 317.982L320.639 318.221ZM300.291 307.164L247.584 309.036L247.634 310.461L300.342 308.589L300.291 307.164ZM248.079 309.213C246.098 307.473 243.387 305.177 240.973 302.52C238.551 299.855 236.5 296.903 235.773 293.885L234.387 294.218C235.198 297.587 237.443 300.756 239.917 303.479C242.399 306.209 245.183 308.568 247.138 310.284L248.079 309.213ZM235.773 293.885C234.861 290.094 234.653 283.713 234.677 276.917C234.701 270.199 234.953 263.013 234.929 257.902L233.503 257.908C233.527 263.069 233.275 270.069 233.251 276.912C233.227 283.677 233.427 290.232 234.387 294.218L235.773 293.885ZM247.082 310.229C249.207 312.555 252.093 316.434 253.845 320.491C255.617 324.591 256.124 328.607 253.954 331.461L255.089 332.324C257.757 328.815 256.969 324.124 255.154 319.925C253.321 315.683 250.331 311.672 248.135 309.268L247.082 310.229ZM192.013 298.622C191.726 293.179 191.918 273.533 192.014 263.674L190.588 263.66C190.492 273.483 190.299 293.196 190.589 298.697L192.013 298.622ZM192.014 263.667V263.665H190.588V263.667H192.014ZM253.954 331.461C252.243 333.711 249.978 335.603 247.292 336.936L247.926 338.213C250.807 336.783 253.244 334.75 255.089 332.324L253.954 331.461ZM247.292 336.936C240.859 340.129 231.938 340.148 222.357 334.061L221.593 335.264C231.534 341.581 240.986 341.658 247.926 338.213L247.292 336.936ZM228.229 326.584C228.868 328.116 230.092 329.509 231.587 330.748C233.089 331.992 234.909 333.118 236.803 334.104C240.589 336.076 244.742 337.526 247.42 338.262L247.798 336.887C245.195 336.172 241.14 334.755 237.461 332.84C235.623 331.882 233.896 330.809 232.497 329.65C231.092 328.485 230.059 327.269 229.546 326.036L228.229 326.584ZM239.67 319.246C243.791 319.354 247.003 321.469 249.369 324.138C251.741 326.815 253.215 330 253.838 332.096L255.205 331.689C254.532 329.428 252.967 326.049 250.436 323.193C247.898 320.329 244.341 317.943 239.707 317.821L239.67 319.246ZM222.357 334.061C213.789 328.616 204.098 318.08 197.991 309.619L196.835 310.454C202.994 318.986 212.809 329.683 221.593 335.264L222.357 334.061ZM197.991 309.619C197.073 308.348 196.243 307.284 195.522 306.345C194.796 305.401 194.187 304.591 193.684 303.802C192.699 302.255 192.127 300.789 192.013 298.622L190.589 298.697C190.717 301.139 191.381 302.84 192.482 304.568C193.022 305.417 193.667 306.272 194.391 307.214C195.119 308.161 195.933 309.204 196.835 310.454L197.991 309.619ZM197.447 309.325L142.659 306.732L142.592 308.157L197.379 310.749L197.447 309.325ZM143.097 306.91C140.993 305.056 134.855 301.093 126.762 299.686L126.518 301.09C134.324 302.448 140.226 306.28 142.154 307.979L143.097 306.91ZM126.762 299.686C121.772 298.818 116.01 297.855 111.491 296.225C109.232 295.41 107.344 294.448 106.03 293.291C104.732 292.149 104.024 290.846 104.024 289.299H102.598C102.598 291.353 103.564 293.02 105.087 294.362C106.595 295.689 108.676 296.725 111.007 297.566C115.669 299.248 121.572 300.23 126.518 301.09L126.762 299.686ZM104.024 289.299C104.024 283.638 105.442 279.931 106.082 278.865L104.859 278.132C104.059 279.466 102.598 283.44 102.598 289.299H104.024ZM142.343 308.099C145.144 309.31 149.468 311.486 153.309 314.067C155.23 315.357 157.014 316.737 158.424 318.137C159.843 319.546 160.834 320.925 161.244 322.207L162.602 321.772C162.09 320.174 160.916 318.601 159.429 317.125C157.933 315.64 156.069 314.203 154.105 312.883C150.175 310.243 145.771 308.027 142.908 306.79L142.343 308.099ZM161.244 322.207C162.398 325.814 163.411 329.435 163.515 332.294C163.566 333.721 163.388 334.883 162.949 335.739C162.527 336.563 161.843 337.152 160.742 337.427L161.088 338.81C162.579 338.437 163.605 337.587 164.218 336.389C164.814 335.225 164.996 333.786 164.939 332.242C164.827 329.161 163.752 325.365 162.602 321.772L161.244 322.207ZM160.742 337.427C160.206 337.561 159.445 337.59 158.46 337.505C157.485 337.42 156.338 337.228 155.055 336.951C152.487 336.398 149.429 335.519 146.199 334.538C139.776 332.588 132.652 330.226 127.626 329.352L127.382 330.756C132.294 331.611 139.282 333.928 145.785 335.903C149.017 336.884 152.124 337.778 154.754 338.345C156.07 338.629 157.28 338.834 158.337 338.925C159.383 339.016 160.327 339 161.088 338.81L160.742 337.427ZM127.626 329.352C119.615 327.958 108.073 327.613 103.311 327.613V329.039C108.053 329.039 119.495 329.385 127.382 330.756L127.626 329.352ZM103.578 327.665C100.187 326.294 94.8208 324.203 89.737 322.38C87.1954 321.47 84.7189 320.624 82.5926 319.969C80.4804 319.319 78.6696 318.843 77.4794 318.69L77.2981 320.104C78.3545 320.24 80.0612 320.682 82.173 321.332C84.2706 321.978 86.7248 322.815 89.2559 323.723C94.3176 325.537 99.6656 327.621 103.043 328.987L103.578 327.665ZM77.4794 318.69C76.2261 318.529 74.6848 317.872 73.0673 316.787C71.4596 315.709 69.8215 314.238 68.3766 312.513C65.4712 309.044 63.4349 304.657 63.8414 300.457L62.4222 300.319C61.9646 305.048 64.2485 309.805 67.2836 313.429C68.8089 315.25 70.546 316.813 72.2731 317.971C73.9903 319.123 75.7433 319.905 77.2981 320.104L77.4794 318.69ZM63.8414 300.457C64.5241 293.402 66.6892 287.276 67.6686 285.131L66.3715 284.539C65.3348 286.81 63.1219 293.088 62.4222 300.319L63.8414 300.457ZM127.735 318.488C129.965 317.727 132.654 318.016 135.619 319.099C138.576 320.178 141.726 322.016 144.82 324.232C151.009 328.665 156.873 334.534 160.375 338.585L161.454 337.652C157.9 333.543 151.955 327.589 145.651 323.073C142.499 320.816 139.232 318.899 136.108 317.759C132.993 316.622 129.94 316.229 127.274 317.138L127.735 318.488ZM102.896 328.906C104.189 329.829 106.095 331.526 107.57 333.581C109.057 335.65 110.022 337.963 109.663 340.164L111.071 340.393C111.519 337.64 110.3 334.937 108.728 332.749C107.146 330.545 105.12 328.743 103.725 327.746L102.896 328.906ZM91.7526 347.783C84.6155 346.701 82.6196 346.135 81.19 345.496C79.7191 344.839 78.6621 344.007 73.7109 342.478L73.2901 343.84C78.1316 345.335 79.0188 346.088 80.6081 346.798C82.2387 347.527 84.4191 348.113 91.539 349.192L91.7526 347.783ZM73.7109 342.478C69.1341 341.064 60.4174 338.356 52.9175 332.953C45.4398 327.565 39.2258 319.542 39.5068 307.461L38.0813 307.428C37.7862 320.116 44.3515 328.538 52.084 334.109C59.7944 339.664 68.7189 342.428 73.2901 343.84L73.7109 342.478ZM39.5068 307.461C39.7922 295.185 42.7513 286.009 47.762 279.022C52.7744 272.033 59.8856 267.171 68.5865 263.605L68.0458 262.286C59.1774 265.92 51.8156 270.923 46.6033 278.191C41.3893 285.461 38.3719 294.934 38.0813 307.428L39.5068 307.461ZM68.5865 263.605C72.9708 261.808 78.9258 259.522 85.5887 256.934C92.2468 254.348 99.6032 251.464 106.774 248.478C113.943 245.492 120.935 242.4 126.864 239.396C132.778 236.4 137.69 233.465 140.655 230.784L139.699 229.726C136.884 232.271 132.119 235.136 126.22 238.124C120.336 241.105 113.38 244.182 106.225 247.162C99.0719 250.141 91.729 253.02 85.0725 255.605C78.4208 258.189 72.4461 260.482 68.0458 262.286L68.5865 263.605ZM109.663 340.164C109.275 342.551 108.53 344.507 107.005 345.904L107.969 346.955C109.833 345.247 110.659 342.922 111.071 340.393L109.663 340.164ZM107.005 345.904C104.687 348.029 100.314 349.08 91.7526 347.783L91.539 349.192C100.173 350.5 105.139 349.548 107.969 346.955L107.005 345.904ZM91.9353 337.33C92.7246 336.979 93.7956 337.041 95.1258 337.529C96.4416 338.011 97.8991 338.87 99.3721 339.934C102.315 342.06 105.199 344.919 106.953 346.902L108.021 345.958C106.222 343.923 103.26 340.984 100.207 338.778C98.6823 337.676 97.1047 336.735 95.6165 336.19C94.1427 335.65 92.6408 335.456 91.3563 336.027L91.9353 337.33ZM205.147 89.7469L203.654 95.4595L205.033 95.8199L206.526 90.1073L205.147 89.7469ZM188.017 97.2595C184.559 94.3094 184.15 89.0005 185.22 83.7751C185.749 81.1949 186.627 78.7076 187.605 76.6679C188.593 74.6073 189.648 73.077 190.496 72.3456L189.565 71.2656C188.493 72.1904 187.335 73.9331 186.319 76.0515C185.293 78.1909 184.377 80.7887 183.824 83.4888C182.73 88.8241 183.004 94.8571 187.092 98.3443L188.017 97.2595ZM190.496 72.3456C190.888 72.0083 191.545 71.6467 192.463 71.2763C193.369 70.9108 194.48 70.5561 195.74 70.2128C198.26 69.5264 201.322 68.8998 204.425 68.3267C207.532 67.7531 210.646 67.2391 213.297 66.7704C215.919 66.3069 218.121 65.8825 219.318 65.4914L218.875 64.136C217.794 64.4892 215.704 64.8968 213.049 65.3663C210.424 65.8305 207.276 66.3504 204.167 66.9246C201.054 67.4994 197.944 68.1346 195.365 68.8372C194.076 69.1884 192.907 69.5599 191.929 69.954C190.964 70.3433 190.135 70.7748 189.565 71.2656L190.496 72.3456ZM219.318 65.4914C224.032 63.9513 253.258 48.4469 283.952 58.5319L284.397 57.1773C253.132 46.9046 223.274 62.6989 218.875 64.136L219.318 65.4914ZM283.952 58.5319C299.374 63.5989 311.057 70.0956 319.304 76.7663C327.561 83.4458 332.334 90.2661 334.016 95.967L335.383 95.5636C333.592 89.4912 328.592 82.4456 320.2 75.6577C311.798 68.8611 299.955 62.289 284.397 57.1773L283.952 58.5319ZM203.858 95.1178C202.813 96.0897 201.2 97.2644 199.297 98.1466C197.393 99.0295 195.243 99.5992 193.107 99.4218L192.989 100.843C195.447 101.047 197.85 100.389 199.897 99.4401C201.946 98.4901 203.683 97.2278 204.829 96.1616L203.858 95.1178ZM193.107 99.4218C191.382 99.2785 189.644 98.647 188.017 97.2595L187.092 98.3443C188.955 99.9336 190.979 100.676 192.989 100.843L193.107 99.4218ZM203.728 96C205.41 98.8718 208.349 102.202 211.811 104.976C215.268 107.746 219.32 110.021 223.248 110.691L223.488 109.285C219.892 108.672 216.062 106.556 212.703 103.864C209.348 101.176 206.536 97.9727 204.959 95.2794L203.728 96ZM223.248 110.691C228.192 111.534 231.371 112.283 233.325 113.484C234.275 114.068 234.912 114.746 235.321 115.584C235.735 116.432 235.942 117.497 235.942 118.892H237.368C237.368 117.365 237.143 116.065 236.602 114.958C236.056 113.84 235.214 112.972 234.072 112.27C231.841 110.899 228.376 110.119 223.488 109.285L223.248 110.691ZM192.138 107.178C192.696 104.951 193.232 102.653 193.745 100.283L192.352 99.9814C191.841 102.337 191.309 104.62 190.755 106.832L192.138 107.178ZM190.798 107.302C191.634 109.126 193.288 111.679 195.42 114.02C197.547 116.356 200.212 118.55 203.092 119.564L203.565 118.22C201.002 117.317 198.527 115.314 196.474 113.06C194.427 110.811 192.861 108.38 192.094 106.708L190.798 107.302ZM203.092 119.564C209.605 121.859 214.675 123.219 218.862 122.265L218.546 120.875C214.82 121.724 210.136 120.535 203.565 118.22L203.092 119.564ZM334.016 95.967C335.111 99.681 335.773 105.467 336.048 113.077C336.323 120.672 336.213 130.031 335.788 140.861L337.213 140.917C337.638 130.068 337.75 120.67 337.473 113.025C337.197 105.396 336.532 99.4591 335.383 95.5636L334.016 95.967ZM309.237 151.913C314.476 152.725 320.204 151.102 325.177 148.816C330.164 146.522 334.488 143.516 336.959 141.435L336.041 140.344C333.657 142.352 329.44 145.286 324.581 147.52C319.709 149.761 314.288 151.253 309.455 150.504L309.237 151.913ZM335.788 140.861C335.481 148.689 335.01 157.282 334.402 166.528L335.825 166.622C336.433 157.367 336.905 148.761 337.213 140.917L335.788 140.861ZM334.402 166.528C334.089 171.279 333.741 176.203 333.36 181.283L334.782 181.389C335.163 176.305 335.512 171.378 335.825 166.622L334.402 166.528ZM319.5 172.906C322.489 173.494 325.811 172.601 328.678 171.326C331.563 170.044 334.099 168.328 335.565 167.126L334.661 166.024C333.281 167.155 330.853 168.8 328.099 170.023C325.328 171.255 322.335 172.011 319.775 171.507L319.5 172.906ZM206.112 89.2698C204.418 88.5582 201.916 87.3333 199.921 85.979C198.92 85.2995 198.083 84.6114 197.536 83.9643C196.968 83.293 196.836 82.814 196.903 82.5001L195.509 82.1999C195.298 83.1824 195.799 84.1181 196.447 84.8847C197.115 85.6756 198.075 86.4487 199.121 87.1587C201.219 88.5835 203.813 89.8506 205.56 90.5844L206.112 89.2698ZM196.903 82.5001C197.013 81.9894 197.373 81.5938 198.071 81.3022C198.786 81.0034 199.773 80.8552 200.933 80.8336C203.241 80.7907 205.992 81.2516 208.01 81.7054L208.323 80.3143C206.264 79.8515 203.384 79.362 200.906 79.4081C199.672 79.431 198.477 79.5871 197.521 79.9866C196.548 80.3933 195.748 81.0901 195.509 82.1999L196.903 82.5001ZM208.01 81.7054C209.997 82.1521 212.87 83.1226 215.084 84.3674C216.196 84.9925 217.088 85.6572 217.628 86.3175C218.16 86.968 218.281 87.514 218.106 88.0112L219.451 88.485C219.852 87.3465 219.444 86.2846 218.731 85.4144C218.027 84.5541 216.958 83.7855 215.783 83.1245C213.422 81.7971 210.413 80.7841 208.323 80.3143L208.01 81.7054ZM218.106 88.0112C217.985 88.354 217.594 88.7176 216.74 89.0169C215.911 89.3073 214.802 89.4799 213.54 89.558C211.023 89.7136 208.068 89.4847 205.924 89.2196L205.749 90.6346C207.931 90.9044 210.985 91.1445 213.628 90.9811C214.945 90.8996 216.203 90.7157 217.211 90.3625C218.194 90.0179 219.11 89.4506 219.451 88.485L218.106 88.0112ZM348.546 251.758C344.742 224.478 341.203 208.916 334.766 181.175L333.377 181.497C339.812 209.229 343.339 224.74 347.134 251.955L348.546 251.758ZM140.637 230.8C158.872 215.395 171.761 201.834 181.572 184.909C191.381 167.989 198.086 147.754 204.027 119.036L202.63 118.748C196.705 147.396 190.038 167.463 180.339 184.194C170.643 200.92 157.889 214.358 139.717 229.71L140.637 230.8Z" fill="#1D59B5"/>
<path d="M288.508 97.8201C284.301 105.581 274.598 108.462 266.837 104.255C259.076 100.047 256.195 90.3446 260.402 82.5834C264.61 74.8221 276.02 68.7911 283.781 72.9986C291.543 77.2061 292.716 90.0589 288.508 97.8201Z" fill="white"/>
<path d="M282.753 94.5364C279.417 100.689 271.725 102.973 265.572 99.6377C259.419 96.302 257.135 88.6098 260.471 82.4568C263.807 76.3038 272.314 72.5155 278.467 75.8512C284.62 79.1869 286.089 88.3834 282.753 94.5364Z" fill="#0A2A5A"/>
<path d="M155.155 226.079C158.553 222.073 164.371 219.742 167.251 220.895C170.132 222.047 166.099 229.247 163.075 232.703C160.051 236.16 155.299 238.752 151.554 237.312C148.559 236.16 152.136 229.637 155.155 226.079Z" fill="#215DB8"/>
<path d="M153.711 249.959C151.491 252.016 147.977 252.966 146.385 252.125C144.792 251.284 145.553 248.442 147.522 246.672C149.491 244.903 154.432 242.744 156.507 243.805C158.166 244.654 155.683 248.131 153.711 249.959Z" fill="#215DB8"/>
<path d="M137.585 247.104C134.772 249.711 129.262 250.863 127.245 249.798C125.227 248.732 128.761 243.876 131.255 241.634C133.749 239.392 137.44 237.914 140.068 239.258C142.17 240.333 140.084 244.789 137.585 247.104Z" fill="#215DB8"/>
<path d="M210.652 36.2824L210.537 36.0459C210.006 34.9453 209.681 34.0217 209.564 33.2749C209.453 32.5252 209.489 31.8613 209.672 31.2831C209.852 30.6989 210.13 30.108 210.507 29.5104C210.764 29.099 210.971 28.6856 211.129 28.2703C211.289 27.846 211.371 27.4225 211.375 26.9998C211.376 26.5711 211.272 26.1445 211.065 25.72C210.83 25.241 210.515 24.8805 210.118 24.6386C209.722 24.3966 209.285 24.2721 208.808 24.265C208.337 24.2549 207.868 24.3641 207.401 24.5926C206.971 24.8033 206.607 25.0976 206.311 25.4755C206.018 25.8443 205.836 26.279 205.766 26.7796C205.698 27.2712 205.789 27.8094 206.037 28.3942L202.799 29.9788C202.266 28.8118 202.073 27.7111 202.22 26.6768C202.374 25.6395 202.793 24.7131 203.476 23.8977C204.166 23.0794 205.041 22.4106 206.102 21.8913C207.26 21.3246 208.378 21.0292 209.456 21.0052C210.541 20.9783 211.512 21.2206 212.371 21.7322C213.234 22.2348 213.915 22.9984 214.417 24.0233C214.755 24.7145 214.946 25.388 214.988 26.0435C215.037 26.6961 214.962 27.334 214.764 27.9573C214.565 28.5806 214.268 29.1955 213.874 29.802C213.531 30.3455 213.282 30.8582 213.127 31.3399C212.978 31.8187 212.936 32.3165 213.001 32.8334C213.069 33.3412 213.257 33.918 213.566 34.5637L213.681 34.8002L210.652 36.2824ZM215.012 41.1838C214.467 41.4508 213.902 41.4867 213.318 41.2915C212.734 41.0963 212.305 40.7198 212.032 40.1619C211.765 39.6161 211.734 39.0528 211.938 38.4718C212.142 37.8908 212.517 37.4668 213.063 37.1998C213.603 36.9357 214.165 36.9012 214.749 37.0965C215.339 37.2887 215.767 37.6577 216.034 38.2035C216.215 38.5734 216.286 38.9559 216.246 39.3511C216.213 39.7433 216.089 40.1046 215.875 40.4348C215.664 40.7561 215.376 41.0057 215.012 41.1838Z" fill="#0A2A5A"/>
<path d="M261.916 21.9038V21.6405C261.923 20.4186 262.038 19.4465 262.26 18.7241C262.49 18.0017 262.814 17.4212 263.233 16.9823C263.651 16.5368 264.161 16.1283 264.762 15.757C265.173 15.5005 265.541 15.2203 265.865 14.9165C266.196 14.606 266.456 14.2617 266.645 13.8836C266.834 13.4988 266.929 13.0701 266.929 12.5976C266.929 12.0642 266.804 11.6018 266.554 11.2102C266.304 10.8187 265.967 10.5149 265.541 10.2988C265.123 10.0828 264.654 9.97479 264.134 9.97479C263.655 9.97479 263.199 10.0794 262.767 10.2887C262.341 10.4912 261.987 10.8018 261.703 11.2204C261.427 11.6322 261.271 12.1554 261.238 12.79H257.633C257.666 11.5073 257.977 10.4339 258.564 9.56973C259.158 8.7056 259.941 8.05751 260.914 7.62544C261.892 7.19338 262.973 6.97734 264.154 6.97734C265.444 6.97734 266.578 7.2035 267.557 7.65582C268.542 8.10814 269.308 8.75286 269.855 9.58999C270.409 10.4204 270.686 11.406 270.686 12.5469C270.686 13.3165 270.561 14.0051 270.311 14.6127C270.068 15.2203 269.72 15.7604 269.268 16.233C268.816 16.7056 268.279 17.1275 267.658 17.4988C267.111 17.8363 266.662 18.1874 266.311 18.552C265.967 18.9165 265.71 19.3452 265.541 19.838C265.379 20.3241 265.295 20.9249 265.288 21.6405V21.9038H261.916ZM263.678 28.2228C263.071 28.2228 262.547 28.0068 262.109 27.5747C261.67 27.1426 261.45 26.616 261.45 25.9949C261.45 25.3874 261.67 24.8675 262.109 24.4355C262.547 24.0034 263.071 23.7874 263.678 23.7874C264.279 23.7874 264.799 24.0034 265.238 24.4355C265.683 24.8675 265.906 25.3874 265.906 25.9949C265.906 26.4068 265.801 26.7814 265.592 27.119C265.39 27.4565 265.119 27.7266 264.782 27.9291C264.451 28.1249 264.083 28.2228 263.678 28.2228Z" fill="#0A2A5A"/>
<path d="M315.941 33.4099L316.013 33.1567C316.354 31.9834 316.731 31.0798 317.143 30.4461C317.561 29.8142 318.032 29.3446 318.555 29.0372C319.079 28.7233 319.681 28.4701 320.361 28.2776C320.827 28.1437 321.258 27.975 321.653 27.7716C322.056 27.5635 322.4 27.3035 322.686 26.9917C322.973 26.6734 323.181 26.287 323.311 25.8325C323.457 25.3196 323.463 24.8406 323.33 24.3956C323.197 23.9506 322.956 23.5659 322.606 23.2417C322.263 22.9193 321.841 22.6869 321.341 22.5445C320.88 22.4132 320.413 22.389 319.94 22.472C319.476 22.5503 319.05 22.7519 318.662 23.0768C318.283 23.397 317.991 23.8577 317.784 24.4588L314.317 23.4714C314.701 22.247 315.294 21.2997 316.095 20.6294C316.903 19.9611 317.834 19.5523 318.887 19.403C319.947 19.2555 321.045 19.3436 322.181 19.6672C323.422 20.0204 324.45 20.5485 325.268 21.2517C326.092 21.9567 326.652 22.7866 326.949 23.7415C327.254 24.6917 327.25 25.7155 326.938 26.8128C326.727 27.553 326.418 28.181 326.012 28.697C325.611 29.2148 325.129 29.639 324.565 29.9696C324 30.3002 323.368 30.559 322.669 30.746C322.051 30.9209 321.523 31.1355 321.086 31.39C320.655 31.6463 320.29 31.9883 319.993 32.4161C319.704 32.8392 319.459 33.3939 319.256 34.0803L319.184 34.3336L315.941 33.4099ZM315.905 39.9699C315.32 39.8034 314.876 39.4524 314.573 38.9166C314.269 38.3809 314.202 37.8144 314.372 37.217C314.539 36.6327 314.892 36.1928 315.432 35.8975C315.973 35.6021 316.535 35.5376 317.119 35.7041C317.697 35.8686 318.138 36.2188 318.442 36.7545C318.752 37.2921 318.824 37.8531 318.657 38.4374C318.545 38.8335 318.341 39.1652 318.048 39.4325C317.76 39.7017 317.427 39.8874 317.047 39.9897C316.675 40.0874 316.294 40.0808 315.905 39.9699Z" fill="#0A2A5A"/>
</svg>
