<svg width="261" height="217" viewBox="0 0 261 217" fill="none" xmlns="http://www.w3.org/2000/svg">
<ellipse opacity="0.25" cx="130.5" cy="192" rx="130.5" ry="25" fill="#07333D"/>
<path fill-rule="evenodd" clip-rule="evenodd" d="M127.57 23.603C127.524 24.9031 124.553 25.7464 123.073 26.0054C121.343 25.7228 118.322 24.9597 118.23 23.603C118.115 21.9071 121.401 21.4125 123.073 21.4832C124.745 21.5538 127.628 21.9778 127.57 23.603Z" fill="#55D3EF"/>
<path d="M123.073 28.9025V26.0054C124.553 25.7464 127.524 24.9031 127.57 23.603C127.628 21.9778 124.745 21.5538 123.073 21.4832C121.401 21.4125 118.115 21.9071 118.23 23.603C118.322 24.9597 121.343 25.7228 123.073 26.0054V28.9025C123.715 30.1417 125.176 32.0477 126.994 32.4364C126.953 33.6217 126.928 34.7752 126.919 35.8979C126.663 66.3654 137.695 74.1496 141.754 78.6474C146.383 83.7763 163.491 91.1543 170.525 94.6873C177.559 98.2203 182.114 104.368 182.344 116.521C182.575 128.675 172.128 132.727 168.449 134.045C164.701 135.388 166.892 135.6 161.184 136.66C155.476 137.719 154.093 135.67 153.689 132.632C153.366 130.201 155.438 127.709 156.514 126.767C154.611 126.767 150.01 126.937 146.828 127.615C142.849 128.463 135.527 132.208 133.451 131.572C131.376 130.936 132.125 127.191 133.048 123.658C133.786 120.832 138.506 117.723 140.774 116.521L118.839 117.793C116.383 121.962 112.478 127.171 109.005 129.876C105.097 132.919 101.419 132.933 98.7419 131.305C97.6273 130.627 96.6863 129.664 95.9744 128.517C94.0371 125.395 97.0122 119.973 98.7419 117.652L77.6395 116.733C78.9381 120.672 78.9936 125.799 76.89 128.517C75.9864 129.685 74.6845 130.408 72.9116 130.402C71.4818 130.398 69.7455 129.919 67.6649 128.816C56.9983 123.163 58.4974 95.6059 58.6127 89.2465C58.728 82.887 61.092 73.9838 64.1478 53.4923C64.5146 51.0325 64.8781 48.651 65.2382 46.3556C65.9389 41.8888 66.6267 37.748 67.3008 33.9901C69.1658 23.5927 70.926 16.126 72.5657 12.792C75.1026 7.63375 82.9439 2.05158 95.9744 1.06234C109.005 0.073091 118.864 11.1668 120.479 12.4387C122.093 13.7105 129.877 17.3142 131.03 19.3634C132.183 21.4125 132.932 29.8918 129.358 32.0116C128.531 32.5017 127.733 32.5944 126.994 32.4364C125.176 32.0477 123.715 30.1417 123.073 28.9025Z" fill="#55D3EF"/>
<path fill-rule="evenodd" clip-rule="evenodd" d="M127.57 23.603C127.524 24.9031 124.553 25.7464 123.073 26.0054C121.343 25.7228 118.322 24.9597 118.23 23.603C118.115 21.9071 121.401 21.4125 123.073 21.4832C124.745 21.5538 127.628 21.9778 127.57 23.603Z" fill="#1D59B5"/>
<path d="M123.073 26.0054V28.9025M123.073 26.0054C124.553 25.7464 127.524 24.9031 127.57 23.603C127.628 21.9778 124.745 21.5538 123.073 21.4832C121.401 21.4125 118.115 21.9071 118.23 23.603C118.322 24.9597 121.343 25.7228 123.073 26.0054ZM123.073 28.9025C123.715 30.1417 125.176 32.0477 126.994 32.4364M123.073 28.9025C121.247 31.1401 117.296 33.6785 114.252 33.3541C110.273 32.9302 108.198 29.5385 108.198 27.136M77.6395 116.733C75.3333 109.738 74.0071 109.031 73.4306 105.286C72.8858 101.748 73.0078 95.3704 72.9117 91.2956M77.6395 116.733C78.9381 120.672 78.9937 125.799 76.89 128.517M77.6395 116.733L98.7419 117.652M76.89 128.517C76.5248 125.225 75.2179 118.599 72.9117 118.429M76.89 128.517C75.9864 129.685 74.6845 130.408 72.9117 130.402M69.2216 121.75C68.8526 124.407 71.5279 128.625 72.9117 130.402M72.9117 130.402C71.4818 130.398 69.7456 129.919 67.6649 128.816C56.9984 123.163 58.4974 95.6059 58.6127 89.2465C58.7281 82.887 61.092 73.9838 64.1478 53.4923C64.5146 51.0325 64.8781 48.651 65.2382 46.3556M98.7419 117.652C100.318 115.956 103.142 113.084 103.758 109.95C104.508 106.134 104.085 97.2547 104.104 92.2142M98.7419 117.652C97.0122 119.973 94.0371 125.395 95.9744 128.517M95.9744 128.517C96.6863 129.664 97.6273 130.627 98.7419 131.305M95.9744 128.517C96.4933 126.379 98.4075 122.075 101.913 121.962M121.286 95.0406C121.324 99.8691 121.401 109.526 121.286 112.211C121.189 114.472 120.296 115.319 118.839 117.793M106.237 125.778C105.315 128.491 100.856 130.593 98.7419 131.305M98.7419 131.305C101.419 132.933 105.097 132.919 109.005 129.876C112.478 127.171 116.383 121.962 118.839 117.793M118.839 117.793L140.774 116.521M140.774 116.521C141.581 115.65 143.991 113.737 147.174 113.059C151.152 112.211 156.514 111.151 156.514 107.618C156.514 104.792 155.938 102.907 155.649 102.319M140.774 116.521C138.506 117.723 133.786 120.832 133.048 123.658C132.125 127.191 131.376 130.936 133.451 131.572M133.451 131.572C135.527 132.208 142.849 128.463 146.828 127.615C150.01 126.937 154.611 126.767 156.514 126.767M133.451 131.572C136.277 127.568 142.907 119.97 146.828 121.609M156.514 126.767C159.224 125.425 165.093 122.669 166.892 122.386C169.141 122.033 172.946 117.44 172.6 113.059C172.324 109.554 171.447 106.511 171.044 105.428M156.514 126.767C155.438 127.709 153.366 130.201 153.689 132.632C153.849 133.838 154.164 134.888 154.842 135.65M126.994 32.4364C127.733 32.5944 128.531 32.5017 129.358 32.0116C132.932 29.8918 132.183 21.4125 131.03 19.3634C129.877 17.3142 122.093 13.7105 120.479 12.4387C118.864 11.1668 109.005 0.073091 95.9744 1.06234C82.944 2.05158 75.1026 7.63375 72.5657 12.792C70.926 16.126 69.1658 23.5927 67.3008 33.9901M126.994 32.4364C126.953 33.6217 126.928 34.7752 126.919 35.8979M126.919 35.8979C126.663 66.3654 137.695 74.1496 141.754 78.6474C146.383 83.7763 163.491 91.1543 170.525 94.6873C177.559 98.2203 182.114 104.368 182.344 116.521C182.575 128.675 172.112 132.659 168.449 134.045C164.528 135.529 166.892 135.6 161.184 136.66C157.742 137.299 155.872 136.807 154.842 135.65M126.919 35.8979C125.944 37.3582 123.415 39.8317 121.113 40.0669C118.345 40.3495 116.327 40.3495 114.886 39.4309M76.7747 42.2573C72.7156 41.7486 68.7675 36.5338 67.3008 33.9901M67.3008 33.9901C66.6267 37.748 65.939 41.8888 65.2382 46.3556M70.663 50.9486C68.4029 50.779 66.1048 47.8159 65.2382 46.3556M161.184 130.865C159.524 129.961 156.264 133.678 154.842 135.65" stroke="#1D59B5" stroke-width="2" stroke-linecap="round" stroke-linejoin="round"/>
<path d="M87.4995 21.1298C87.4995 25.4616 90.3648 28.9731 93.8994 28.9731C97.434 28.9731 100.299 25.4616 100.299 21.1298C100.299 16.7981 97.434 11.5283 93.8994 11.5283C90.3648 11.5283 87.4995 16.7981 87.4995 21.1298Z" fill="white"/>
<path d="M90.1517 21.0592C90.1517 24.4934 92.4233 27.2773 95.2255 27.2773C98.0277 27.2773 100.299 24.4934 100.299 21.0592C100.299 17.625 98.0277 14.0015 95.2255 14.0015C92.4233 14.0015 90.1517 17.625 90.1517 21.0592Z" fill="#0A2A5A"/>
<path d="M135.757 76.5987C134.397 74.6333 132.067 73.4897 130.914 74.0549C129.761 74.6202 131.375 78.1532 132.586 79.8491C133.797 81.5449 135.7 82.8168 137.199 82.1102C138.398 81.5449 136.966 78.3445 135.757 76.5987Z" fill="#215DB8"/>
<path d="M136.335 88.3155C137.224 89.3252 138.631 89.7909 139.269 89.3782C139.906 88.9655 139.601 87.5713 138.813 86.703C138.025 85.8347 136.046 84.7757 135.216 85.2961C134.552 85.7125 135.546 87.4187 136.335 88.3155Z" fill="#215DB8"/>
<path d="M142.792 86.915C143.918 88.194 146.124 88.7593 146.932 88.2365C147.74 87.7136 146.325 85.3309 145.327 84.2309C144.328 83.1309 142.85 82.4057 141.798 83.0651C140.957 83.5925 141.792 85.7788 142.792 86.915Z" fill="#215DB8"/>
<path fill-rule="evenodd" clip-rule="evenodd" d="M96.9901 59.9482C96.948 61.2484 94.2392 62.0916 92.89 62.3507C91.3131 62.068 88.5587 61.3049 88.4746 59.9482C88.3695 58.2524 91.3657 57.7577 92.89 57.8284C94.4144 57.8991 97.0426 58.323 96.9901 59.9482Z" fill="#55D3EF"/>
<path d="M92.89 65.2477V62.3507C94.2392 62.0916 96.948 61.2484 96.9901 59.9482C97.0426 58.323 94.4144 57.8991 92.89 57.8284C91.3657 57.7577 88.3695 58.2524 88.4746 59.9482C88.5587 61.3049 91.3131 62.068 92.89 62.3507V65.2477C93.4755 66.4869 94.8068 68.3929 96.4644 68.7816C96.427 69.9669 96.4045 71.1204 96.3959 72.2431C96.163 102.711 106.22 110.495 109.921 114.993C114.141 120.122 129.738 127.5 136.151 131.033C142.563 134.566 146.716 140.713 146.926 152.867C147.137 165.02 137.613 169.072 134.258 170.39C130.842 171.733 132.839 171.945 127.635 173.005C122.431 174.065 121.17 172.016 120.802 168.977C120.507 166.546 122.396 164.054 123.377 163.112C121.643 163.112 117.448 163.282 114.547 163.96C110.92 164.808 104.244 168.553 102.352 167.917C100.459 167.281 101.143 163.536 101.984 160.003C102.656 157.177 106.96 154.068 109.027 152.867L89.0296 154.138C86.791 158.307 83.231 163.517 80.0643 166.221C76.5015 169.265 73.1484 169.279 70.7079 167.65C69.6917 166.972 68.8338 166.01 68.1848 164.862C66.4186 161.74 69.1309 156.318 70.7079 153.997L51.4693 153.079C52.6532 157.018 52.7038 162.144 50.7859 164.862C49.9622 166.03 48.7753 166.753 47.159 166.748C45.8554 166.743 44.2725 166.264 42.3756 165.161C32.6512 159.509 34.0179 131.951 34.123 125.592C34.2281 119.232 36.3833 110.329 39.1692 89.8375C39.5036 87.3777 39.835 84.9962 40.1633 82.7008C40.8022 78.234 41.4292 74.0932 42.0437 70.3353C43.744 59.9379 45.3487 52.4712 46.8436 49.1372C49.1564 43.979 56.3052 38.3968 68.1848 37.4076C80.0643 36.4183 89.0528 47.512 90.5246 48.7839C91.9964 50.0558 99.0926 53.6594 100.144 55.7086C101.195 57.7577 101.879 66.237 98.6196 68.3568C97.866 68.8469 97.1383 68.9396 96.4644 68.7816C94.8068 68.3929 93.4755 66.4869 92.89 65.2477Z" fill="#55D3EF"/>
<path fill-rule="evenodd" clip-rule="evenodd" d="M96.9901 59.9482C96.948 61.2484 94.2392 62.0916 92.8901 62.3507C91.3131 62.068 88.5587 61.3049 88.4746 59.9482C88.3695 58.2524 91.3657 57.7577 92.8901 57.8284C94.4145 57.8991 97.0426 58.323 96.9901 59.9482Z" fill="#1D59B5"/>
<path d="M92.8901 62.3507V65.2477M92.8901 62.3507C94.2392 62.0916 96.948 61.2484 96.9901 59.9482C97.0426 58.323 94.4145 57.8991 92.8901 57.8284C91.3657 57.7577 88.3695 58.2524 88.4746 59.9482C88.5587 61.3049 91.3131 62.068 92.8901 62.3507ZM92.8901 65.2477C93.4756 66.4869 94.8068 68.3929 96.4644 68.7816M92.8901 65.2477C91.2255 67.4853 87.6228 70.0237 84.8477 69.6993C81.2208 69.2754 79.3284 65.8837 79.3284 63.4812M51.4693 153.079C49.3667 146.083 48.1577 145.377 47.6321 141.632C47.1354 138.093 47.2466 131.716 47.159 127.641M51.4693 153.079C52.6532 157.018 52.7038 162.144 50.786 164.862M51.4693 153.079L70.7079 153.997M50.786 164.862C50.4531 161.57 49.2616 154.944 47.159 154.774M50.786 164.862C49.9622 166.03 48.7753 166.753 47.159 166.748M43.7949 158.095C43.4585 160.752 45.8975 164.971 47.159 166.748M47.159 166.748C45.8554 166.743 44.2726 166.264 42.3757 165.161C32.6512 159.509 34.0179 131.951 34.123 125.592C34.2282 119.232 36.3833 110.329 39.1692 89.8375C39.5036 87.3777 39.835 84.9962 40.1633 82.7008M70.7079 153.997C72.1446 152.301 74.7198 149.429 75.281 146.295C75.9643 142.48 75.5788 133.6 75.5964 128.559M70.7079 153.997C69.1309 156.318 66.4186 161.74 68.1848 164.862M68.1848 164.862C68.8338 166.01 69.6917 166.972 70.7079 167.65M68.1848 164.862C68.6579 162.724 70.403 158.42 73.5989 158.307M91.2606 131.386C91.2956 136.214 91.3657 145.871 91.2606 148.556C91.172 150.817 90.3582 151.664 89.0296 154.138M77.5413 162.123C76.7002 164.836 72.6352 166.938 70.7079 167.65M70.7079 167.65C73.1484 169.279 76.5016 169.265 80.0643 166.221C83.231 163.517 86.791 158.307 89.0296 154.138M89.0296 154.138L109.027 152.867M109.027 152.867C109.763 151.995 111.96 150.083 114.862 149.404C118.489 148.556 123.377 147.496 123.377 143.963C123.377 141.137 122.852 139.253 122.589 138.664M109.027 152.867C106.96 154.068 102.657 157.177 101.984 160.003C101.143 163.536 100.459 167.281 102.352 167.917M102.352 167.917C104.244 168.553 110.92 164.808 114.547 163.96C117.448 163.282 121.643 163.112 123.377 163.112M102.352 167.917C104.927 163.913 110.972 156.315 114.547 157.954M123.377 163.112C125.848 161.77 131.199 159.014 132.839 158.731C134.889 158.378 138.358 153.785 138.043 149.404C137.791 145.899 136.992 142.856 136.624 141.773M123.377 163.112C122.396 164.054 120.507 166.546 120.802 168.977C120.948 170.183 121.235 171.233 121.853 171.995M96.4644 68.7816C97.1383 68.9396 97.8661 68.8469 98.6196 68.3568C101.879 66.237 101.195 57.7577 100.144 55.7086C99.0927 53.6594 91.9965 50.0558 90.5247 48.7839C89.0529 47.512 80.0643 36.4183 68.1848 37.4076C56.3052 38.3968 49.1565 43.979 46.8436 49.1372C45.3487 52.4712 43.744 59.9379 42.0437 70.3353M96.4644 68.7816C96.4271 69.9669 96.4045 71.1204 96.3959 72.2431M96.3959 72.2431C96.163 102.711 106.22 110.495 109.921 114.993C114.141 120.122 129.738 127.5 136.151 131.033C142.563 134.566 146.716 140.713 146.926 152.867C147.137 165.02 137.597 169.004 134.258 170.39C130.684 171.874 132.839 171.945 127.635 173.005C124.497 173.644 122.792 173.152 121.853 171.995M96.3959 72.2431C95.5076 73.7034 93.2019 76.1769 91.1029 76.4121C88.5798 76.6947 86.74 76.6947 85.4259 75.7761M50.6808 78.6025C46.9803 78.0938 43.3809 72.8791 42.0437 70.3353M42.0437 70.3353C41.4292 74.0932 40.8022 78.234 40.1633 82.7008M45.109 87.2938C43.0485 87.1242 40.9533 84.1612 40.1633 82.7008M127.635 167.211C126.121 166.306 123.15 170.024 121.853 171.995" stroke="#1D59B5" stroke-width="2" stroke-linecap="round" stroke-linejoin="round"/>
<path d="M60.4586 57.475C60.4586 61.8068 63.0709 65.3183 66.2933 65.3183C69.5157 65.3183 72.1279 61.8068 72.1279 57.475C72.1279 53.1433 69.5157 47.8735 66.2933 47.8735C63.0709 47.8735 60.4586 53.1433 60.4586 57.475Z" fill="white"/>
<path d="M62.8766 57.4044C62.8766 60.8386 64.9476 63.6225 67.5023 63.6225C70.0569 63.6225 72.1279 60.8386 72.1279 57.4044C72.1279 53.9702 70.0569 50.3467 67.5023 50.3467C64.9476 50.3467 62.8766 53.9702 62.8766 57.4044Z" fill="#0A2A5A"/>
<path d="M104.454 112.943C103.214 110.978 101.09 109.834 100.039 110.4C98.9876 110.965 100.459 114.498 101.563 116.194C102.667 117.89 104.402 119.162 105.768 118.455C106.862 117.89 105.556 114.689 104.454 112.943Z" fill="#215DB8"/>
<path d="M104.982 124.66C105.792 125.67 107.075 126.136 107.656 125.723C108.237 125.311 107.959 123.916 107.241 123.048C106.522 122.18 104.719 121.121 103.961 121.641C103.356 122.057 104.262 123.764 104.982 124.66Z" fill="#215DB8"/>
<path d="M110.868 123.26C111.895 124.539 113.906 125.104 114.642 124.581C115.379 124.059 114.089 121.676 113.179 120.576C112.268 119.476 110.921 118.751 109.962 119.41C109.194 119.937 109.956 122.124 110.868 123.26Z" fill="#215DB8"/>
<path fill-rule="evenodd" clip-rule="evenodd" d="M122.087 53.2816C122.162 54.9876 126.94 56.0941 129.319 56.434C132.101 56.0632 136.959 55.0618 137.108 53.2816C137.293 51.0564 132.008 50.4074 129.319 50.5001C126.631 50.5928 121.995 51.1491 122.087 53.2816Z" fill="#55D3EF"/>
<path d="M129.319 60.2354V56.434C126.94 56.0941 122.162 54.9876 122.087 53.2816C121.995 51.1491 126.631 50.5928 129.319 50.5001C132.008 50.4074 137.293 51.0564 137.108 53.2816C136.959 55.0618 132.101 56.0632 129.319 56.434V60.2354C128.287 61.8615 125.938 64.3624 123.015 64.8724C123.081 66.4277 123.12 67.9413 123.135 69.4144C123.546 109.392 105.807 119.607 99.279 125.508C91.8353 132.238 64.3246 141.919 53.0131 146.555C41.7016 151.191 34.3769 159.257 34.0061 175.205C33.6352 191.152 50.4344 196.469 56.3509 198.199C62.3775 199.96 58.8543 200.238 68.0333 201.629C77.2123 203.02 79.4375 200.331 80.0865 196.344C80.6058 193.155 77.2741 189.885 75.5434 188.649C78.6031 188.649 86.0019 188.871 91.1199 189.761C97.5174 190.874 109.292 195.788 112.63 194.954C115.968 194.119 114.763 189.205 113.279 184.569C112.093 180.861 104.502 176.781 100.855 175.205L136.129 176.874C140.077 182.344 146.357 189.179 151.942 192.728C158.227 196.722 164.141 196.74 168.446 194.603C170.238 193.714 171.752 192.451 172.896 190.945C176.012 186.848 171.228 179.734 168.446 176.688L202.381 175.483C200.292 180.652 200.203 187.378 203.586 190.945C205.039 192.477 207.132 193.426 209.983 193.419C212.283 193.413 215.075 192.784 218.421 191.338C235.573 183.92 233.163 147.761 232.977 139.416C232.792 131.071 228.99 119.389 224.076 92.501C223.487 89.2733 222.902 86.1485 222.323 83.1366C221.196 77.2754 220.09 71.8421 219.006 66.9111C216.007 53.2681 213.176 43.4706 210.54 39.0959C206.46 32.3275 193.851 25.0029 172.896 23.7048C151.942 22.4068 136.088 36.9634 133.492 38.6323C130.896 40.3012 118.379 45.0298 116.524 47.7186C114.67 50.4074 113.465 61.5335 119.213 64.315C120.542 64.9581 121.826 65.0798 123.015 64.8724C125.938 64.3624 128.287 61.8615 129.319 60.2354Z" fill="#55D3EF"/>
<path fill-rule="evenodd" clip-rule="evenodd" d="M122.087 53.2816C122.162 54.9876 126.94 56.0941 129.319 56.434C132.101 56.0632 136.959 55.0618 137.108 53.2816C137.293 51.0564 132.008 50.4074 129.319 50.5001C126.631 50.5928 121.995 51.1491 122.087 53.2816Z" fill="#1D59B5"/>
<path d="M129.319 56.434V60.2354M129.319 56.434C126.94 56.0941 122.162 54.9876 122.087 53.2816C121.995 51.1491 126.631 50.5928 129.319 50.5001C132.008 50.4074 137.293 51.0564 137.108 53.2816C136.959 55.0618 132.101 56.0632 129.319 56.434ZM129.319 60.2354C128.287 61.8615 125.938 64.3624 123.015 64.8724M129.319 60.2354C132.255 63.1715 138.61 66.5023 143.505 66.0766C149.903 65.5203 153.24 61.0699 153.24 57.9175M202.381 175.483C206.089 166.304 208.222 165.377 209.149 160.463C210.025 155.82 209.829 147.451 209.983 142.105M202.381 175.483C200.292 180.652 200.203 187.378 203.586 190.945M202.381 175.483L168.446 176.688M203.586 190.945C204.173 186.626 206.275 177.931 209.983 177.708M203.586 190.945C205.039 192.477 207.132 193.426 209.983 193.419M215.917 182.066C216.511 185.552 212.209 191.087 209.983 193.419M209.983 193.419C212.283 193.413 215.075 192.784 218.421 191.338C235.573 183.92 233.163 147.761 232.977 139.416C232.792 131.071 228.99 119.389 224.076 92.501C223.486 89.2733 222.902 86.1485 222.323 83.1366M168.446 176.688C165.912 174.463 161.37 170.694 160.38 166.582C159.174 161.575 159.854 149.924 159.823 143.31M168.446 176.688C171.228 179.734 176.012 186.848 172.896 190.945M172.896 190.945C171.752 192.451 170.238 193.714 168.446 194.603M172.896 190.945C172.062 188.14 168.984 182.492 163.347 182.344M132.194 147.019C132.132 153.354 132.008 166.026 132.194 169.549C132.35 172.516 133.785 173.627 136.129 176.874M156.393 187.351C157.876 190.911 165.046 193.669 168.446 194.603M168.446 194.603C164.141 196.74 158.227 196.722 151.942 192.728C146.357 189.179 140.077 182.344 136.129 176.874M136.129 176.874L100.855 175.205M100.855 175.205C99.5571 174.061 95.6815 171.552 90.5635 170.662C84.166 169.549 75.5433 168.158 75.5433 163.522C75.5433 159.814 76.4705 157.341 76.9341 156.569M100.855 175.205C104.502 176.781 112.092 180.861 113.279 184.569C114.763 189.205 115.968 194.119 112.63 194.954M112.63 194.954C109.292 195.788 97.5173 190.874 91.1198 189.761C86.0018 188.871 78.603 188.649 75.5433 188.649M112.63 194.954C108.087 189.7 97.4246 179.729 91.1198 181.88M75.5433 188.649C71.1856 186.887 61.747 183.271 58.8542 182.9C55.2383 182.437 49.1189 176.41 49.6752 170.662C50.1203 166.063 51.5296 162.07 52.1786 160.648M75.5433 188.649C77.2741 189.885 80.6057 193.155 80.0865 196.344C79.8289 197.927 79.3229 199.305 78.2322 200.305M123.015 64.8724C121.826 65.0798 120.542 64.9581 119.213 64.315C113.465 61.5335 114.67 50.4074 116.524 47.7186C118.379 45.0298 130.896 40.3012 133.492 38.6323C136.088 36.9634 151.942 22.4068 172.896 23.7048C193.851 25.0029 206.46 32.3275 210.54 39.0959C213.176 43.4706 216.007 53.2681 219.006 66.9111M123.015 64.8724C123.08 66.4277 123.12 67.9413 123.135 69.4144M123.135 69.4144C123.546 109.392 105.807 119.607 99.279 125.508C91.8353 132.238 64.3246 141.919 53.013 146.555C41.7015 151.191 34.3769 159.257 34.006 175.205C33.6351 191.152 50.4612 196.38 56.3509 198.199C62.6557 200.146 58.8542 200.238 68.0333 201.629C73.5686 202.468 76.5751 201.823 78.2322 200.305M123.135 69.4144C124.702 71.3306 128.769 74.5762 132.472 74.8848C136.922 75.2556 140.167 75.2556 142.485 74.0503M203.771 77.759C210.299 77.0914 216.648 70.2489 219.006 66.9111M219.006 66.9111C220.09 71.8421 221.196 77.2754 222.323 83.1366M213.599 89.1632C217.234 88.9407 220.929 85.0528 222.323 83.1366M68.0333 194.026C70.7035 192.84 75.9451 197.717 78.2322 200.305" stroke="#1D59B5" stroke-width="2" stroke-linecap="round" stroke-linejoin="round"/>
<path d="M186.526 50.0364C186.526 55.7203 181.918 60.328 176.234 60.328C170.551 60.328 165.943 55.7203 165.943 50.0364C165.943 44.3525 170.551 37.4377 176.234 37.4377C181.918 37.4377 186.526 44.3525 186.526 50.0364Z" fill="white"/>
<path d="M182.261 49.9439C182.261 54.4501 178.608 58.103 174.102 58.103C169.596 58.103 165.943 54.4501 165.943 49.9439C165.943 45.4378 169.596 40.6831 174.102 40.6831C178.608 40.6831 182.261 45.4378 182.261 49.9439Z" fill="#0A2A5A"/>
<path d="M108.922 122.82C111.11 120.241 114.856 118.74 116.71 119.482C118.565 120.224 115.969 124.859 114.022 127.085C112.074 129.31 109.015 130.979 106.604 130.052C104.676 129.31 106.978 125.11 108.922 122.82Z" fill="#215DB8"/>
<path d="M107.993 138.194C106.564 139.519 104.302 140.13 103.276 139.589C102.251 139.047 102.741 137.218 104.009 136.078C105.276 134.939 108.458 133.549 109.793 134.232C110.861 134.779 109.263 137.017 107.993 138.194Z" fill="#215DB8"/>
<path d="M97.6105 136.356C95.7996 138.035 92.252 138.776 90.9529 138.09C89.6538 137.404 91.9291 134.278 93.5349 132.834C95.1407 131.391 97.517 130.439 99.2088 131.305C100.562 131.997 99.2191 134.865 97.6105 136.356Z" fill="#215DB8"/>
</svg>
