<svg width="193" height="185" viewBox="0 0 193 185" fill="none" xmlns="http://www.w3.org/2000/svg">
<ellipse opacity="0.15" cx="96.5" cy="160" rx="96.5" ry="25" fill="#07333D"/>
<path fill-rule="evenodd" clip-rule="evenodd" d="M89.1594 52.3623C89.2196 53.7468 93.0973 54.6448 95.0286 54.9207C97.286 54.6197 101.229 53.807 101.349 52.3623C101.5 50.5564 97.2108 50.0297 95.0286 50.1049C92.8465 50.1802 89.0842 50.6317 89.1594 52.3623Z" fill="#55D3EF"/>
<path d="M95.0286 58.0058V54.9207C93.0973 54.6448 89.2196 53.7468 89.1594 52.3623C89.0842 50.6317 92.8465 50.1802 95.0286 50.1049C97.2108 50.0297 101.5 50.5564 101.349 52.3623C101.229 53.807 97.286 54.6197 95.0286 54.9207V58.0058C94.1905 59.3254 92.2848 61.355 89.9119 61.769C89.9654 63.0312 89.9977 64.2595 90.01 65.4551C90.3434 97.8998 75.9467 106.189 70.6489 110.979C64.608 116.441 42.2812 124.297 33.1012 128.06C23.9212 131.822 17.9768 138.368 17.6758 151.311C17.3748 164.253 31.0084 168.568 35.8101 169.972C40.7011 171.401 37.8417 171.627 45.2911 172.756C52.7404 173.884 54.5463 171.702 55.073 168.467C55.4944 165.878 52.7906 163.225 51.386 162.221C53.8691 162.221 59.8737 162.402 64.0273 163.124C69.2193 164.027 78.7755 168.015 81.4844 167.338C84.1932 166.661 83.215 162.673 82.0111 158.911C81.0479 155.901 74.8878 152.59 71.9281 151.311L100.555 152.665C103.759 157.104 108.856 162.652 113.389 165.532C118.489 168.773 123.289 168.788 126.782 167.054C128.237 166.332 129.465 165.307 130.394 164.085C132.922 160.76 129.04 154.986 126.782 152.515L154.322 151.536C152.628 155.731 152.555 161.19 155.301 164.085C156.48 165.328 158.179 166.099 160.493 166.093C162.359 166.088 164.625 165.578 167.34 164.403C181.26 158.384 179.304 129.038 179.154 122.266C179.003 115.494 175.918 106.013 171.93 84.1913C171.451 81.5718 170.977 79.0358 170.507 76.5915C169.592 71.8348 168.695 67.4253 167.815 63.4235C165.381 52.3513 163.084 44.4 160.944 40.8497C157.633 35.3567 147.4 29.4123 130.394 28.3589C113.389 27.3054 100.522 39.119 98.4147 40.4735C96.3078 41.8279 86.1496 45.6654 84.6447 47.8476C83.1398 50.0297 82.1616 59.0592 86.8268 61.3166C87.9055 61.8385 88.9473 61.9372 89.9119 61.769C92.2848 61.355 94.1905 59.3254 95.0286 58.0058Z" fill="#55D3EF"/>
<path fill-rule="evenodd" clip-rule="evenodd" d="M89.1594 52.3623C89.2196 53.7468 93.0973 54.6448 95.0286 54.9207C97.286 54.6197 101.229 53.807 101.349 52.3623C101.5 50.5564 97.2107 50.0297 95.0286 50.1049C92.8464 50.1802 89.0842 50.6317 89.1594 52.3623Z" fill="#215DB8"/>
<path d="M95.0286 54.9207V58.0058M95.0286 54.9207C93.0973 54.6448 89.2196 53.7468 89.1594 52.3623C89.0842 50.6317 92.8464 50.1802 95.0286 50.1049C97.2107 50.0297 101.5 50.5564 101.349 52.3623C101.229 53.807 97.286 54.6197 95.0286 54.9207ZM95.0286 58.0058C94.1904 59.3254 92.2847 61.355 89.9119 61.769M95.0286 58.0058C97.4114 60.3885 102.569 63.0917 106.541 62.7462C111.733 62.2948 114.442 58.683 114.442 56.1246M154.322 151.536C157.332 144.087 159.063 143.335 159.815 139.347C160.526 135.578 160.367 128.787 160.493 124.448M154.322 151.536C152.628 155.731 152.555 161.19 155.301 164.085M154.322 151.536L126.782 152.515M155.301 164.085C155.777 160.579 157.483 153.523 160.493 153.342M155.301 164.085C156.48 165.328 158.179 166.099 160.493 166.093M165.308 156.879C165.79 159.708 162.298 164.2 160.493 166.093M160.493 166.093C162.359 166.088 164.625 165.578 167.34 164.403C181.26 158.384 179.304 129.038 179.154 122.266C179.003 115.494 175.918 106.013 171.93 84.1913C171.451 81.5718 170.977 79.0358 170.507 76.5915M126.782 152.515C124.726 150.709 121.039 147.65 120.236 144.313C119.258 140.25 119.81 130.794 119.784 125.426M126.782 152.515C129.04 154.986 132.922 160.76 130.394 164.085M130.394 164.085C129.465 165.307 128.237 166.332 126.782 167.054M130.394 164.085C129.717 161.808 127.219 157.225 122.644 157.105M97.3612 128.436C97.311 133.578 97.2107 143.861 97.3612 146.721C97.4879 149.129 98.6529 150.03 100.555 152.665M117 161.168C118.204 164.057 124.023 166.296 126.782 167.054M126.782 167.054C123.289 168.788 118.489 168.773 113.389 165.532C108.855 162.652 103.759 157.104 100.555 152.665M100.555 152.665L71.9281 151.311M71.9281 151.311C70.8746 150.383 67.7294 148.346 63.5758 147.624C58.3838 146.721 51.3859 145.592 51.3859 141.83C51.3859 138.82 52.1384 136.813 52.5146 136.186M71.9281 151.311C74.8878 152.59 81.0479 155.901 82.011 158.911C83.215 162.673 84.1932 166.661 81.4843 167.338M81.4843 167.338C78.7755 168.015 69.2192 164.027 64.0273 163.124C59.8737 162.402 53.8691 162.221 51.3859 162.221M81.4843 167.338C77.7973 163.074 69.144 154.983 64.0273 156.728M51.3859 162.221C47.8494 160.792 40.1894 157.857 37.8417 157.556C34.9071 157.18 29.9409 152.289 30.3923 147.624C30.7535 143.891 31.8973 140.651 32.424 139.497M51.3859 162.221C52.7905 163.225 55.4944 165.878 55.073 168.467C54.8639 169.751 54.4533 170.87 53.5681 171.681M89.9119 61.769C88.9473 61.9372 87.9055 61.8385 86.8268 61.3166C82.1615 59.0592 83.1397 50.0297 84.6446 47.8476C86.1496 45.6654 96.3078 41.8279 98.4147 40.4735C100.241 39.2992 110.156 30.2634 123.843 28.5666M89.9119 61.769C89.9654 63.0312 89.9976 64.2595 90.0099 65.4551M90.0099 65.4551C90.3434 97.8998 75.9466 106.189 70.6489 110.979C67.6979 113.647 60.8607 116.886 53.5681 119.941M90.0099 65.4551C91.2815 67.0102 94.5821 69.6442 97.5869 69.8946C101.199 70.1956 103.832 70.1956 105.714 69.2174M155.451 72.2272C160.748 71.6855 165.901 66.1323 167.815 63.4235M167.815 63.4235C165.381 52.3513 163.084 44.4 160.944 40.8497C157.895 35.7912 148.975 30.3498 134.302 28.698M167.815 63.4235C168.695 67.4253 169.592 71.8348 170.507 76.5915M163.427 81.4825C166.377 81.3019 169.376 78.1466 170.507 76.5915M45.291 166.586C47.4581 165.622 51.712 169.581 53.5681 171.681M53.5681 171.681C52.2233 172.913 49.7833 173.436 45.291 172.756C37.8417 171.627 40.9268 171.552 35.81 169.972C31.0302 168.496 17.3748 164.253 17.6758 151.311C17.9768 138.368 23.9212 131.822 33.1012 128.06C37.0752 126.431 43.5129 124.035 50.0266 121.398M127.379 32.431C126.175 30.3843 124.52 29.002 123.843 28.5666M123.843 28.5666C125.401 28.3734 127.009 28.2754 128.659 28.2949M132.496 32.431C132.496 30.2639 129.938 28.7707 128.659 28.2949M128.659 28.2949C129.232 28.3017 129.811 28.3227 130.394 28.3589C131.739 28.4422 133.042 28.5561 134.302 28.698M136.258 32.431C136.439 30.2639 135.029 29.0394 134.302 28.698M118.726 100.83C125.122 107.225 144.686 105.043 146.417 102.41M124.219 98.7227C127.831 102.41 134.302 102.033 138.215 100.83M115.19 103.839C119.784 107.978 122.714 109.408 127.831 109.558M136.108 109.558C140.683 109.558 146.642 107.752 149.05 106.849M45.9633 128.972C48.2508 127.045 49.6253 123.12 50.0266 121.398M50.0266 121.398C51.2094 120.919 52.3946 120.433 53.5681 119.941M51.3859 125.811C53.1317 123.464 53.5681 120.92 53.5681 119.941" stroke="#215DB8" stroke-width="2" stroke-linecap="round" stroke-linejoin="round"/>
<path d="M103.602 55.8325C106.01 57.3976 106.11 58.9427 105.859 59.5196M104.655 53.7256C107.063 55.2907 108.669 58.416 108.418 58.9928M106.386 52.2207C108.794 53.7858 110.399 56.911 110.148 57.4879M107.289 55.0048C109.697 56.5699 110.399 60.2219 110.148 60.7987M105.859 56.7355C108.267 58.3006 108.97 61.9525 108.719 62.5294" stroke="#0D3E87" stroke-linecap="round" stroke-linejoin="round"/>
<path d="M87.4169 53.9913C85.4389 55.2817 85.1296 56.8088 85.2222 57.411M86.9796 51.7766C85.0016 53.0671 83.3638 56 83.4564 56.6022M85.9612 50.086C83.9833 51.3765 82.3454 54.3093 82.438 54.9115M84.8826 52.7573C82.9046 54.0478 81.8377 57.6055 81.9303 58.2077M85.6491 54.6393C83.6711 55.9297 82.6042 59.4874 82.6968 60.0896" stroke="#0D3E87" stroke-linecap="round" stroke-linejoin="round"/>
<path d="M141.456 49.7287C141.456 54.3415 137.716 58.081 133.103 58.081C128.49 58.081 124.751 54.3415 124.751 49.7287C124.751 45.1158 128.49 44.696 133.103 44.696C137.716 44.696 141.456 45.1158 141.456 49.7287Z" fill="white"/>
<path d="M140.773 51.3847C140.773 55.0417 137.808 58.0063 134.151 58.0063C130.494 58.0063 128.357 55.8025 128.357 52.1454C128.357 48.4884 131.548 49.2108 135.205 49.2108C138.862 49.2108 140.773 47.7276 140.773 51.3847Z" fill="#0A2A5A"/>
<path d="M78.4747 108.797C80.2506 106.704 83.2905 105.486 84.7954 106.088C86.3003 106.69 84.1934 110.452 82.6133 112.258C81.0331 114.064 78.55 115.418 76.5936 114.666C75.0285 114.064 76.8973 110.656 78.4747 108.797Z" fill="#215DB8"/>
<path d="M77.7202 121.274C76.5601 122.349 74.7244 122.845 73.8922 122.406C73.0599 121.966 73.4578 120.482 74.4865 119.557C75.5152 118.632 78.0972 117.505 79.181 118.059C80.0481 118.502 78.7507 120.319 77.7202 121.274Z" fill="#215DB8"/>
<path d="M69.2947 119.783C67.825 121.145 64.946 121.747 63.8917 121.19C62.8374 120.633 64.6839 118.096 65.9871 116.925C67.2903 115.753 69.2188 114.981 70.5918 115.683C71.6903 116.245 70.6002 118.573 69.2947 119.783Z" fill="#215DB8"/>
<path d="M172.982 104.033C173.778 105.939 173.637 108.623 172.8 109.658C171.963 110.692 170.204 108.118 169.531 106.436C168.858 104.754 168.745 102.474 169.814 101.122C170.669 100.04 172.274 102.34 172.982 104.033Z" fill="#215DB8"/>
<path d="M165.269 100.391C164.934 99.2173 165.172 97.6549 165.703 97.1089C166.233 96.5629 167.058 97.2382 167.336 98.2719C167.615 99.3055 167.554 101.608 166.874 102.324C166.331 102.896 165.566 101.433 165.269 100.391Z" fill="#215DB8"/>
<path d="M168.759 94.1403C168.335 92.6535 168.82 90.246 169.492 89.5543C170.165 88.8626 171.222 90.9326 171.575 92.242C171.927 93.5515 171.837 95.2544 170.977 96.1607C170.288 96.8858 169.135 95.4609 168.759 94.1403Z" fill="#215DB8"/>
<path d="M109.383 19.3669L92.6157 16.0542C104.304 10.9406 125.438 4.37441e-07 136.497 0C146.724 0 165.463 5.53826 175.537 8.66415L154.641 17.4812C154.573 23.1554 154.243 34.7381 153.469 35.6759C152.5 36.8481 149.85 32.618 131.859 33.8921C117.467 34.9114 110.539 36.1176 108.568 33.8921L109.383 19.3669Z" fill="#3A3A3A"/>
<path d="M109.383 19.3669L108.568 33.8921C110.539 36.1176 118.18 35.9817 132.573 34.9624C150.564 33.6883 152.5 36.8481 153.469 35.6759C153.739 35.3481 153.956 33.7193 154.126 31.4967C151.324 30.4264 144.937 28.2349 141.798 28.0311C138.658 27.8272 133.184 29.645 130.84 30.5793C129.447 29.8658 125.866 28.2961 122.685 27.7253C118.71 27.0117 115.499 28.4388 115.805 22.3739C116.05 17.522 126.678 12.6395 131.961 10.8047C123.144 11.6201 116.468 11.3143 109.587 16.7677L109.383 19.3669Z" fill="#323031"/>
<rect x="160.502" y="22.717" width="4.58307" height="6.89154" rx="2.29154" transform="rotate(-7.49895 160.502 22.717)" fill="#F7C127"/>
<rect x="160.761" y="24.6826" width="4.58307" height="0.694632" transform="rotate(-7.49895 160.761 24.6826)" fill="#D9AE36"/>
<rect x="160.91" y="25.979" width="4.58307" height="0.694632" transform="rotate(-7.49895 160.91 25.979)" fill="#D9AE36"/>
<rect x="161.114" y="27.304" width="4.58307" height="0.694632" transform="rotate(-7.49895 161.114 27.304)" fill="#D9AE36"/>
<path d="M162.286 29.2032L161.726 41.0272H162.643V37.7654L163.153 41.0272L164.376 40.7214L164.019 35.8797L164.987 40.7214H165.599L165.293 37.1029L166.312 40.3647L168.606 39.906L165.089 29.0503L162.286 29.2032Z" fill="#F7C127"/>
</svg>
