<svg width="41" height="41" viewBox="0 0 41 41" fill="none" xmlns="http://www.w3.org/2000/svg">
<path fill-rule="evenodd" clip-rule="evenodd" d="M14.56 0.802521H26.8395C38.0462 0.802521 40.6997 3.45601 40.6997 14.6628V26.9423C40.6997 38.149 38.0462 40.8025 26.8395 40.8025H14.56C3.3532 40.8025 0.699707 38.149 0.699707 26.9423V14.6628C0.699707 3.45601 3.3532 0.802521 14.56 0.802521Z" fill="#4680C2"/>
<path fill-rule="evenodd" clip-rule="evenodd" d="M33.3945 14.5695C33.5921 13.9485 33.3945 13.4968 32.5194 13.4968H29.6118C28.8779 13.4968 28.5392 13.892 28.3416 14.3155C28.3416 14.3155 26.8454 17.9287 24.7565 20.2716C24.079 20.9491 23.7685 21.175 23.4016 21.175C23.2039 21.175 22.9499 20.9491 22.9499 20.3281V14.5412C22.9499 13.8073 22.7241 13.4685 22.103 13.4685H17.53C17.0783 13.4685 16.7961 13.8073 16.7961 14.146C16.7961 14.8518 17.8405 15.0211 17.9534 16.9971V21.2879C17.9534 22.2195 17.7841 22.3888 17.4171 22.3888C16.4291 22.3888 14.0297 18.7473 12.59 14.5977C12.3077 13.779 12.0254 13.4685 11.2915 13.4685H8.35567C7.50883 13.4685 7.36768 13.8638 7.36768 14.2872C7.36768 15.0494 8.35567 18.8885 11.9689 23.9696C14.3684 27.4417 17.7841 29.3048 20.861 29.3048C22.7241 29.3048 22.9499 28.8814 22.9499 28.1757V25.5505C22.9499 24.7035 23.1193 24.5625 23.7121 24.5625C24.1355 24.5625 24.8977 24.7882 26.6196 26.4537C28.5956 28.4297 28.9343 29.333 30.0353 29.333H32.9428C33.7897 29.333 34.1849 28.9096 33.9591 28.091C33.705 27.2724 32.7453 26.0868 31.5032 24.6753C30.8257 23.885 29.8094 23.0099 29.4989 22.5864C29.0755 22.0219 29.1884 21.796 29.4989 21.2879C29.4708 21.2879 33.0275 16.2632 33.3945 14.5695Z" fill="white"/>
</svg>
